<svg xmlns="http://www.w3.org/2000/svg" xmlns:xlink="http://www.w3.org/1999/xlink" xmlns:lucid="lucid" width="1661" height="1142.5"><g transform="translate(-259.4999836642001 2.000216904179687)" lucid:page-tab-id="0_0"><path d="M0 0h3677.73v1322.83H0z" fill="#fff"/><path d="M760 97.42a6 6 0 0 1 6-6h468a6 6 0 0 1 6 6v88a6 6 0 0 1-6 6H766a6 6 0 0 1-6-6z" stroke="#3a414a" fill="#009393"/><use xlink:href="#a" transform="matrix(1,0,0,1,765,96.41732283464557) translate(207.2530864197531 48.71527777777778)"/><path d="M480 277.42a6 6 0 0 1 6-6h468a6 6 0 0 1 6 6v88a6 6 0 0 1-6 6H486a6 6 0 0 1-6-6z" stroke="#3a414a" fill="#009393"/><use xlink:href="#b" transform="matrix(1,0,0,1,485,276.4173228346456) translate(185.679012345679 48.71527777777778)"/><use xlink:href="#c" transform="matrix(1,0,0,1,485,276.4173228346456) translate(233.82716049382717 48.71527777777778)"/><path d="M1020 277.42a6 6 0 0 1 6-6h468a6 6 0 0 1 6 6v88a6 6 0 0 1-6 6h-468a6 6 0 0 1-6-6z" stroke="#3a414a" fill="#009393"/><use xlink:href="#d" transform="matrix(1,0,0,1,1025,276.4173228346456) translate(179.50617283950618 48.71527777777778)"/><use xlink:href="#c" transform="matrix(1,0,0,1,1025,276.4173228346456) translate(240 48.71527777777778)"/><path d="M978.8 208.27v17.15a6 6 0 0 1-6 6H726a6 6 0 0 0-6 6v17.15" stroke="#3a414a" fill="none"/><path d="M978.8 193.5l4.63 14.27h-9.27zM720 269.34l-4.64-14.27h9.28z" stroke="#3a414a" fill="#3a414a"/><path d="M1000 208.26v17.16a6 6 0 0 0 6 6h248a6 6 0 0 1 6 6v17.15" stroke="#3a414a" fill="none"/><path d="M1000 193.5l4.64 14.26h-9.28zM1260 269.34l-4.64-14.27h9.28z" stroke="#3a414a" fill="#3a414a"/><path d="M480 477.42a6 6 0 0 1 6-6h468a6 6 0 0 1 6 6v88a6 6 0 0 1-6 6H486a6 6 0 0 1-6-6z" stroke="#3a414a" fill="#009393"/><use xlink:href="#e" transform="matrix(1,0,0,1,485,476.4173228346456) translate(148.1172839506173 48.71527777777778)"/><use xlink:href="#f" transform="matrix(1,0,0,1,485,476.4173228346456) translate(223.24074074074076 48.71527777777778)"/><use xlink:href="#c" transform="matrix(1,0,0,1,485,476.4173228346456) translate(271.3888888888889 48.71527777777778)"/><path d="M1020 477.42a6 6 0 0 1 6-6h468a6 6 0 0 1 6 6v88a6 6 0 0 1-6 6h-468a6 6 0 0 1-6-6z" stroke="#3a414a" fill="#009393"/><use xlink:href="#e" transform="matrix(1,0,0,1,1025,476.4173228346456) translate(141.94444444444446 48.71527777777778)"/><use xlink:href="#g" transform="matrix(1,0,0,1,1025,476.4173228346456) translate(217.0679012345679 48.71527777777778)"/><use xlink:href="#c" transform="matrix(1,0,0,1,1025,476.4173228346456) translate(277.5617283950618 48.71527777777778)"/><path d="M720 388.26v66.3" stroke="#3a414a" fill="none"/><path d="M720 373.5l4.64 14.26h-9.28zM720 469.34l-4.64-14.27h9.28z" stroke="#3a414a" fill="#3a414a"/><path d="M1260 388.26v66.3" stroke="#3a414a" fill="none"/><path d="M1260 373.5l4.64 14.26h-9.28zM1260 469.34l-4.64-14.27h9.28z" stroke="#3a414a" fill="#3a414a"/><path d="M760 677.42a6 6 0 0 1 6-6h468a6 6 0 0 1 6 6v88a6 6 0 0 1-6 6H766a6 6 0 0 1-6-6z" stroke="#3a414a" fill="#009393"/><use xlink:href="#h" transform="matrix(1,0,0,1,765,676.4173228346457) translate(178.91975308641975 48.71527777777778)"/><use xlink:href="#c" transform="matrix(1,0,0,1,765,676.4173228346457) translate(240.5864197530864 48.71527777777778)"/><path d="M720 572.38v43.04a6 6 0 0 0 6 6h268a6 6 0 0 1 6 6v27.15" stroke="#3a414a" fill="none"/><path d="M720.5 572.4h-1v-.52h1z" stroke="#3a414a" stroke-width=".05" fill="#3a414a"/><path d="M1000 669.34l-4.64-14.27h9.28z" stroke="#3a414a" fill="#3a414a"/><path d="M1260 572.38v43.04a6 6 0 0 1-6 6h-248a6 6 0 0 0-6 6v27.15" stroke="#3a414a" fill="none"/><path d="M1260.5 572.4h-1v-.52h1z" stroke="#3a414a" stroke-width=".05" fill="#3a414a"/><path d="M1000 669.34l-4.64-14.27h9.28z" stroke="#3a414a" fill="#3a414a"/><path d="M260 866a6 6 0 0 1 6-6h468a6 6 0 0 1 6 6v88a6 6 0 0 1-6 6H266a6 6 0 0 1-6-6z" stroke="#3a414a" fill="#009393"/><use xlink:href="#i" transform="matrix(1,0,0,1,265,865) translate(175.83333333333331 48.71527777777778)"/><path d="M760 866a6 6 0 0 1 6-6h468a6 6 0 0 1 6 6v88a6 6 0 0 1-6 6H766a6 6 0 0 1-6-6z" stroke="#3a414a" fill="#009393"/><use xlink:href="#j" transform="matrix(1,0,0,1,765.0000000000001,865) translate(210.98765432098764 48.71527777777778)"/><path d="M955.2 788.27v21.44a6 6 0 0 1-6 6H506a6 6 0 0 0-6 6v21.45" stroke="#3a414a" fill="none"/><path d="M955.2 773.5l4.63 14.27h-9.27zM500 857.92l-4.64-14.27h9.28z" stroke="#3a414a" fill="#3a414a"/><path d="M1000 802.26v40.9" stroke="#3a414a" fill="none"/><path d="M1000 772.6l14.85 14.84L1000 802.6l-14.85-15.16z" stroke="#3a414a" fill="#fff"/><path d="M1000 857.92l-4.64-14.27h9.28z" stroke="#3a414a" fill="#3a414a"/><path d="M1440 97.42a6 6 0 0 1 6-6h468a6 6 0 0 1 6 6v88a6 6 0 0 1-6 6h-468a6 6 0 0 1-6-6z" stroke="#3a414a" fill="#009393"/><use xlink:href="#k" transform="matrix(1,0,0,1,1445,96.41732283464557) translate(202.34567901234567 48.71527777777778)"/><path d="M260 1046a6 6 0 0 1 6-6h468a6 6 0 0 1 6 6v88a6 6 0 0 1-6 6H266a6 6 0 0 1-6-6z" stroke="#3a414a" fill="#009393"/><use xlink:href="#l" transform="matrix(1,0,0,1,265,1045) translate(169.6604938271605 48.71527777777778)"/><use xlink:href="#m" transform="matrix(1,0,0,1,265,1045) translate(252.25308641975312 48.71527777777778)"/><path d="M500 990.84v32.3" stroke="#3a414a" fill="none"/><path d="M500 961.17l14.85 14.85L500 991.17l-14.85-15.15z" stroke="#3a414a" fill="#fff"/><path d="M500 1037.92l-4.64-14.27h9.28z" stroke="#3a414a" fill="#3a414a"/><path d="M759.04 721.42H386a6 6 0 0 1-6-6v-568a6 6 0 0 1 6-6h357.15" stroke="#3a414a" fill="none"/><path d="M759.54 721.92h-.52v-1h.52z" stroke="#3a414a" stroke-width=".05" fill="#3a414a"/><path d="M757.92 141.42l-14.27 4.63v-9.27z" stroke="#3a414a" fill="#3a414a"/><path d="M1270.84 141.42h152.3" stroke="#3a414a" fill="none"/><path d="M1241.17 141.42l14.85-14.85 15.15 14.85-15.15 14.85z" stroke="#3a414a" fill="#fff"/><path d="M1437.92 141.42l-14.27 4.63v-9.27z" stroke="#3a414a" fill="#3a414a"/><path d="M1440 677.42a6 6 0 0 1 6-6h468a6 6 0 0 1 6 6v88a6 6 0 0 1-6 6h-468a6 6 0 0 1-6-6z" stroke="#3a414a" fill="#009393"/><use xlink:href="#n" transform="matrix(1,0,0,1,1445,676.4173228346456) translate(214.01234567901236 48.71527777777778)"/><path d="M1530.84 521.42H1674a6 6 0 0 1 6 6v127.15" stroke="#3a414a" fill="none"/><path d="M1501.17 521.42l14.85-14.85 15.15 14.85-15.15 14.85z" stroke="#3a414a" fill="#fff"/><path d="M1680 669.34l-4.64-14.27h9.28z" stroke="#3a414a" fill="#3a414a"/><path d="M981.46 530.8V604a6 6 0 0 0 6 6h486.14a6 6 0 0 1 6 6v38.6" stroke="#3a414a" fill="none"/><path d="M961.1 521.7l19.62-7.5 7.78 19.74-19.88 7.38z" stroke="#3a414a" fill="#fff"/><path d="M1479.6 669.37l-4.63-14.27h9.27z" stroke="#3a414a" fill="#3a414a"/><path d="M1270.84 721.42h152.3" stroke="#3a414a" fill="none"/><path d="M1241.17 721.42l14.85-14.85 15.15 14.85-15.15 14.85z" stroke="#3a414a" fill="#fff"/><path d="M1437.92 721.42l-14.27 4.63v-9.27z" stroke="#3a414a" fill="#3a414a"/><path d="M1320 120c0 66.27-152.22 120-340 120s-340-53.73-340-120C640 53.73 792.22 0 980 0s340 53.73 340 120z" stroke="#3a414a" stroke-width="4" fill-opacity="0"/><defs><path fill="#3a414a" d="M106-169C34-169 62-67 57 0H25v-261h32l-1 103c12-21 28-36 61-36 89 0 53 116 60 194h-32v-121c2-32-8-49-39-48" id="o"/><path fill="#3a414a" d="M100-194c62-1 85 37 85 99 1 63-27 99-86 99S16-35 15-95c0-66 28-99 85-99zM99-20c44 1 53-31 53-75 0-43-8-75-51-75s-53 32-53 75 10 74 51 75" id="p"/><path fill="#3a414a" d="M210-169c-67 3-38 105-44 169h-31v-121c0-29-5-50-35-48C34-165 62-65 56 0H25l-1-190h30c1 10-1 24 2 32 10-44 99-50 107 0 11-21 27-35 58-36 85-2 47 119 55 194h-31v-121c0-29-5-49-35-48" id="q"/><path fill="#3a414a" d="M100-194c63 0 86 42 84 106H49c0 40 14 67 53 68 26 1 43-12 49-29l28 8c-11 28-37 45-77 45C44 4 14-33 15-96c1-61 26-98 85-98zm52 81c6-60-76-77-97-28-3 7-6 17-6 28h103" id="r"/><g id="a"><use transform="matrix(0.06172839506172839,0,0,0.06172839506172839,0,0)" xlink:href="#o"/><use transform="matrix(0.06172839506172839,0,0,0.06172839506172839,12.345679012345679,0)" xlink:href="#p"/><use transform="matrix(0.06172839506172839,0,0,0.06172839506172839,24.691358024691358,0)" xlink:href="#q"/><use transform="matrix(0.06172839506172839,0,0,0.06172839506172839,43.148148148148145,0)" xlink:href="#r"/></g><path fill="#3a414a" d="M135-143c-3-34-86-38-87 0 15 53 115 12 119 90S17 21 10-45l28-5c4 36 97 45 98 0-10-56-113-15-118-90-4-57 82-63 122-42 12 7 21 19 24 35" id="s"/><path fill="#3a414a" d="M59-47c-2 24 18 29 38 22v24C64 9 27 4 27-40v-127H5v-23h24l9-43h21v43h35v23H59v120" id="t"/><g id="b"><use transform="matrix(0.06172839506172839,0,0,0.06172839506172839,0,0)" xlink:href="#o"/><use transform="matrix(0.06172839506172839,0,0,0.06172839506172839,12.345679012345679,0)" xlink:href="#p"/><use transform="matrix(0.06172839506172839,0,0,0.06172839506172839,24.691358024691358,0)" xlink:href="#s"/><use transform="matrix(0.06172839506172839,0,0,0.06172839506172839,35.80246913580247,0)" xlink:href="#t"/></g><path fill="#3a414a" d="M114-163C36-179 61-72 57 0H25l-1-190h30c1 12-1 29 2 39 6-27 23-49 58-41v29" id="u"/><g id="c"><use transform="matrix(0.06172839506172839,0,0,0.06172839506172839,0,0)" xlink:href="#u"/><use transform="matrix(0.06172839506172839,0,0,0.06172839506172839,7.345679012345679,0)" xlink:href="#p"/><use transform="matrix(0.06172839506172839,0,0,0.06172839506172839,19.691358024691358,0)" xlink:href="#p"/><use transform="matrix(0.06172839506172839,0,0,0.06172839506172839,32.03703703703704,0)" xlink:href="#q"/></g><path fill="#3a414a" d="M177-190C167-65 218 103 67 71c-23-6-38-20-44-43l32-5c15 47 100 32 89-28v-30C133-14 115 1 83 1 29 1 15-40 15-95c0-56 16-97 71-98 29-1 48 16 59 35 1-10 0-23 2-32h30zM94-22c36 0 50-32 50-73 0-42-14-75-50-75-39 0-46 34-46 75s6 73 46 73" id="v"/><path fill="#3a414a" d="M84 4C-5 8 30-112 23-190h32v120c0 31 7 50 39 49 72-2 45-101 50-169h31l1 190h-30c-1-10 1-25-2-33-11 22-28 36-60 37" id="w"/><g id="d"><use transform="matrix(0.06172839506172839,0,0,0.06172839506172839,0,0)" xlink:href="#v"/><use transform="matrix(0.06172839506172839,0,0,0.06172839506172839,12.345679012345679,0)" xlink:href="#w"/><use transform="matrix(0.06172839506172839,0,0,0.06172839506172839,24.691358024691358,0)" xlink:href="#r"/><use transform="matrix(0.06172839506172839,0,0,0.06172839506172839,37.03703703703704,0)" xlink:href="#s"/><use transform="matrix(0.06172839506172839,0,0,0.06172839506172839,48.14814814814815,0)" xlink:href="#t"/></g><path fill="#3a414a" d="M206 0h-36l-40-164L89 0H53L-1-190h32L70-26l43-164h34l41 164 42-164h31" id="x"/><path fill="#3a414a" d="M141-36C126-15 110 5 73 4 37 3 15-17 15-53c-1-64 63-63 125-63 3-35-9-54-41-54-24 1-41 7-42 31l-33-3c5-37 33-52 76-52 45 0 72 20 72 64v82c-1 20 7 32 28 27v20c-31 9-61-2-59-35zM48-53c0 20 12 33 32 33 41-3 63-29 60-74-43 2-92-5-92 41" id="y"/><path fill="#3a414a" d="M24-231v-30h32v30H24zM24 0v-190h32V0H24" id="z"/><path fill="#3a414a" d="M117-194c89-4 53 116 60 194h-32v-121c0-31-8-49-39-48C34-167 62-67 57 0H25l-1-190h30c1 10-1 24 2 32 11-22 29-35 61-36" id="A"/><g id="e"><use transform="matrix(0.06172839506172839,0,0,0.06172839506172839,0,0)" xlink:href="#x"/><use transform="matrix(0.06172839506172839,0,0,0.06172839506172839,15.987654320987653,0)" xlink:href="#y"/><use transform="matrix(0.06172839506172839,0,0,0.06172839506172839,28.333333333333332,0)" xlink:href="#z"/><use transform="matrix(0.06172839506172839,0,0,0.06172839506172839,33.20987654320987,0)" xlink:href="#t"/><use transform="matrix(0.06172839506172839,0,0,0.06172839506172839,39.382716049382715,0)" xlink:href="#z"/><use transform="matrix(0.06172839506172839,0,0,0.06172839506172839,44.25925925925926,0)" xlink:href="#A"/><use transform="matrix(0.06172839506172839,0,0,0.06172839506172839,56.60493827160494,0)" xlink:href="#v"/></g><g id="f"><use transform="matrix(0.06172839506172839,0,0,0.06172839506172839,0,0)" xlink:href="#o"/><use transform="matrix(0.06172839506172839,0,0,0.06172839506172839,12.345679012345679,0)" xlink:href="#p"/><use transform="matrix(0.06172839506172839,0,0,0.06172839506172839,24.691358024691358,0)" xlink:href="#s"/><use transform="matrix(0.06172839506172839,0,0,0.06172839506172839,35.80246913580247,0)" xlink:href="#t"/></g><g id="g"><use transform="matrix(0.06172839506172839,0,0,0.06172839506172839,0,0)" xlink:href="#v"/><use transform="matrix(0.06172839506172839,0,0,0.06172839506172839,12.345679012345679,0)" xlink:href="#w"/><use transform="matrix(0.06172839506172839,0,0,0.06172839506172839,24.691358024691358,0)" xlink:href="#r"/><use transform="matrix(0.06172839506172839,0,0,0.06172839506172839,37.03703703703704,0)" xlink:href="#s"/><use transform="matrix(0.06172839506172839,0,0,0.06172839506172839,48.14814814814815,0)" xlink:href="#t"/></g><g id="h"><use transform="matrix(0.06172839506172839,0,0,0.06172839506172839,0,0)" xlink:href="#v"/><use transform="matrix(0.06172839506172839,0,0,0.06172839506172839,12.345679012345679,0)" xlink:href="#y"/><use transform="matrix(0.06172839506172839,0,0,0.06172839506172839,24.691358024691358,0)" xlink:href="#q"/><use transform="matrix(0.06172839506172839,0,0,0.06172839506172839,43.148148148148145,0)" xlink:href="#r"/></g><path fill="#3a414a" d="M24 0v-261h32V0H24" id="B"/><path fill="#3a414a" d="M85-194c31 0 48 13 60 33l-1-100h32l1 261h-30c-2-10 0-23-3-31C134-8 116 4 85 4 32 4 16-35 15-94c0-66 23-100 70-100zm9 24c-40 0-46 34-46 75 0 40 6 74 45 74 42 0 51-32 51-76 0-42-9-74-50-73" id="C"/><path fill="#3a414a" d="M115-194c53 0 69 39 70 98 0 66-23 100-70 100C84 3 66-7 56-30L54 0H23l1-261h32v101c10-23 28-34 59-34zm-8 174c40 0 45-34 45-75 0-40-5-75-45-74-42 0-51 32-51 76 0 43 10 73 51 73" id="D"/><g id="i"><use transform="matrix(0.06172839506172839,0,0,0.06172839506172839,0,0)" xlink:href="#B"/><use transform="matrix(0.06172839506172839,0,0,0.06172839506172839,4.876543209876543,0)" xlink:href="#r"/><use transform="matrix(0.06172839506172839,0,0,0.06172839506172839,17.22222222222222,0)" xlink:href="#y"/><use transform="matrix(0.06172839506172839,0,0,0.06172839506172839,29.5679012345679,0)" xlink:href="#C"/><use transform="matrix(0.06172839506172839,0,0,0.06172839506172839,41.913580246913575,0)" xlink:href="#r"/><use transform="matrix(0.06172839506172839,0,0,0.06172839506172839,54.25925925925925,0)" xlink:href="#u"/><use transform="matrix(0.06172839506172839,0,0,0.06172839506172839,61.60493827160493,0)" xlink:href="#D"/><use transform="matrix(0.06172839506172839,0,0,0.06172839506172839,73.9506172839506,0)" xlink:href="#p"/><use transform="matrix(0.06172839506172839,0,0,0.06172839506172839,86.29629629629629,0)" xlink:href="#y"/><use transform="matrix(0.06172839506172839,0,0,0.06172839506172839,98.64197530864197,0)" xlink:href="#u"/><use transform="matrix(0.06172839506172839,0,0,0.06172839506172839,105.98765432098766,0)" xlink:href="#C"/></g><g id="j"><use transform="matrix(0.06172839506172839,0,0,0.06172839506172839,0,0)" xlink:href="#u"/><use transform="matrix(0.06172839506172839,0,0,0.06172839506172839,7.345679012345679,0)" xlink:href="#w"/><use transform="matrix(0.06172839506172839,0,0,0.06172839506172839,19.691358024691358,0)" xlink:href="#B"/><use transform="matrix(0.06172839506172839,0,0,0.06172839506172839,24.5679012345679,0)" xlink:href="#r"/><use transform="matrix(0.06172839506172839,0,0,0.06172839506172839,36.913580246913575,0)" xlink:href="#s"/></g><path fill="#3a414a" d="M96-169c-40 0-48 33-48 73s9 75 48 75c24 0 41-14 43-38l32 2c-6 37-31 61-74 61-59 0-76-41-82-99-10-93 101-131 147-64 4 7 5 14 7 22l-32 3c-4-21-16-35-41-35" id="E"/><g id="k"><use transform="matrix(0.06172839506172839,0,0,0.06172839506172839,0,0)" xlink:href="#E"/><use transform="matrix(0.06172839506172839,0,0,0.06172839506172839,11.11111111111111,0)" xlink:href="#u"/><use transform="matrix(0.06172839506172839,0,0,0.06172839506172839,18.45679012345679,0)" xlink:href="#r"/><use transform="matrix(0.06172839506172839,0,0,0.06172839506172839,30.80246913580247,0)" xlink:href="#C"/><use transform="matrix(0.06172839506172839,0,0,0.06172839506172839,43.148148148148145,0)" xlink:href="#z"/><use transform="matrix(0.06172839506172839,0,0,0.06172839506172839,48.02469135802469,0)" xlink:href="#t"/><use transform="matrix(0.06172839506172839,0,0,0.06172839506172839,54.19753086419753,0)" xlink:href="#s"/></g><path fill="#3a414a" d="M115-194c55 1 70 41 70 98S169 2 115 4C84 4 66-9 55-30l1 105H24l-1-265h31l2 30c10-21 28-34 59-34zm-8 174c40 0 45-34 45-75s-6-73-45-74c-42 0-51 32-51 76 0 43 10 73 51 73" id="F"/><g id="l"><use transform="matrix(0.06172839506172839,0,0,0.06172839506172839,0,0)" xlink:href="#F"/><use transform="matrix(0.06172839506172839,0,0,0.06172839506172839,12.345679012345679,0)" xlink:href="#p"/><use transform="matrix(0.06172839506172839,0,0,0.06172839506172839,24.691358024691358,0)" xlink:href="#s"/><use transform="matrix(0.06172839506172839,0,0,0.06172839506172839,35.80246913580247,0)" xlink:href="#z"/><use transform="matrix(0.06172839506172839,0,0,0.06172839506172839,40.67901234567901,0)" xlink:href="#t"/><use transform="matrix(0.06172839506172839,0,0,0.06172839506172839,46.851851851851855,0)" xlink:href="#z"/><use transform="matrix(0.06172839506172839,0,0,0.06172839506172839,51.7283950617284,0)" xlink:href="#p"/><use transform="matrix(0.06172839506172839,0,0,0.06172839506172839,64.07407407407408,0)" xlink:href="#A"/></g><g id="m"><use transform="matrix(0.06172839506172839,0,0,0.06172839506172839,0,0)" xlink:href="#t"/><use transform="matrix(0.06172839506172839,0,0,0.06172839506172839,6.172839506172839,0)" xlink:href="#y"/><use transform="matrix(0.06172839506172839,0,0,0.06172839506172839,18.51851851851852,0)" xlink:href="#D"/><use transform="matrix(0.06172839506172839,0,0,0.06172839506172839,30.864197530864196,0)" xlink:href="#B"/><use transform="matrix(0.06172839506172839,0,0,0.06172839506172839,35.74074074074074,0)" xlink:href="#r"/></g><g id="n"><use transform="matrix(0.06172839506172839,0,0,0.06172839506172839,0,0)" xlink:href="#E"/><use transform="matrix(0.06172839506172839,0,0,0.06172839506172839,11.11111111111111,0)" xlink:href="#o"/><use transform="matrix(0.06172839506172839,0,0,0.06172839506172839,23.45679012345679,0)" xlink:href="#y"/><use transform="matrix(0.06172839506172839,0,0,0.06172839506172839,35.80246913580247,0)" xlink:href="#t"/></g></defs></g></svg>